<svg version="1.1" xmlns="http://www.w3.org/2000/svg" xmlns:xlink="http://www.w3.org/1999/xlink" width="130.85854" height="39.28961" viewBox="0,0,130.85854,39.28961"><g transform="translate(-174.57073,-160.35519)"><g data-paper-data="{&quot;isPaintingLayer&quot;:true}" fill-rule="nonzero" stroke="none" stroke-width="1" stroke-linecap="butt" stroke-linejoin="miter" stroke-miterlimit="10" stroke-dasharray="" stroke-dashoffset="0" style="mix-blend-mode: normal"><g><path d="M238.42402,198.70939c-39.84904,-2.80627 -68.47299,-1.87085 -63.23462,-20.39223c5.23837,-18.52138 57.99625,-17.96013 81.19475,-17.96013c23.1985,0 51.82245,10.47674 48.45493,28.0627c-2.05793,9.35423 -53.13205,11.22508 -66.41506,10.28966z" fill="#e8ae68"/><path d="M304.65199,188.41974c-1.87085,9.35423 -52.94496,11.22508 -66.60214,10.28966c-33.86233,-2.4321 -59.68001,-2.05793 -63.23462,-13.4701c2.99335,-0.37417 5.05129,-0.93542 7.2963,0.93542c2.61919,2.05793 9.16715,6.54796 15.52803,4.67712c6.36088,-1.87085 8.60589,0.37417 12.53467,0.37417c3.92878,0 4.11586,-1.12251 8.60589,-1.12251c4.30295,0 17.39887,4.67712 21.32765,3.74169c3.92878,-0.93542 6.36088,-1.30959 8.79298,-0.93542c2.4321,0.37417 9.54132,1.30959 13.28301,-0.74834c3.55461,-2.05793 17.58596,0.93542 20.39223,-0.37417c2.80627,-1.30959 5.42546,-1.49668 8.60589,-1.49668c2.61919,0 9.7284,-3.55461 13.84427,-4.67712c0,0.93542 -0.18708,1.87085 -0.37417,2.80627z" fill="#d69a51"/><path d="M219.52847,161.47954c-6.73505,6.54796 -11.038,15.15386 -11.038,15.15386c-1.68376,-6.54796 -0.56125,-11.038 1.30959,-14.21844c3.18044,-0.56125 6.36088,-0.74834 9.7284,-0.93542z" fill="#f2c083"/><path d="M233.18565,176.44632c-2.05793,-7.67047 0,-12.72176 2.4321,-15.9022c3.36752,-0.18708 6.73505,-0.18708 9.7284,-0.18708c-7.48339,6.54796 -12.1605,16.08928 -12.1605,16.08928z" fill="#f2c083"/><path d="M256.38415,177.56883c-2.24502,-8.79298 0.56125,-14.03135 3.36752,-17.02471c2.80627,0 5.79962,0.37417 8.79298,0.74834c-7.2963,6.54796 -12.1605,16.08928 -12.1605,16.27637z" fill="#f2c083"/><path d="M187.91116,194.03228c0,0 2.24502,0.37417 6.36088,0.93542c3.92878,0.56125 9.7284,1.12251 16.65054,1.68376c6.92213,0.56125 14.96677,0.93542 23.57267,1.30959c4.30295,0.18708 8.79298,0.37417 13.28301,0.37417c4.49003,0 9.16715,-0.18708 13.65718,-0.37417c9.16715,-0.37417 18.3343,-1.30959 26.94019,-2.80627c4.30295,-0.74834 8.23173,-1.68376 11.97342,-3.18044c1.68376,-0.74834 3.55461,-1.87085 4.11586,-3.36752c0.18708,-1.68376 0.18708,-3.55461 0,-5.23837c-0.37417,-3.36752 -2.05793,-6.17379 -3.92878,-8.23173c-1.87085,-2.05793 -3.74169,-3.55461 -5.42546,-4.67712c-1.68376,-1.12251 -2.99335,-1.87085 -3.92878,-2.4321c-0.93542,-0.56125 -1.49668,-0.74834 -1.49668,-0.74834c0,0 0.56125,0.18708 1.49668,0.74834c0.93542,0.56125 2.4321,1.12251 4.11586,2.24502c1.68376,1.12251 3.74169,2.4321 5.61254,4.49003c1.87085,2.05793 3.74169,4.8642 4.30295,8.41881c0.18708,1.68376 0.37417,3.55461 0,5.61254c-0.37417,1.12251 -1.12251,1.87085 -1.87085,2.4321c-0.74834,0.56125 -1.68376,1.12251 -2.61919,1.49668c-3.74169,1.68376 -7.85756,2.61919 -12.1605,3.55461c-8.60589,1.68376 -17.77304,2.4321 -26.94019,2.99335c-4.67712,0.18708 -9.35423,0.37417 -14.03135,0.37417c-4.49003,0 -8.98006,-0.18708 -13.28301,-0.37417c-8.60589,-0.37417 -16.65054,-0.93542 -23.57267,-1.68376c-6.92213,-0.74834 -12.53467,-1.49668 -16.65054,-2.24502c-3.92878,-0.74834 -6.17379,-1.30959 -6.17379,-1.30959z" fill="#ad7939"/><path d="M259.19042,191.22601c-2.4321,0.18708 -3.74169,-2.05793 -1.68376,-2.24502c2.05793,-0.18708 4.67712,2.05793 1.68376,2.24502z" fill="#d69a51"/><path d="M238.23693,192.16143c-2.4321,0.18708 0.18708,-1.49668 2.05793,-1.30959c1.87085,0.18708 0.18708,1.12251 -2.05793,1.30959z" fill="#d69a51"/><path d="M280.89224,190.85184c-2.05793,0.18708 -1.68376,-3.36752 2.61919,-3.36752c4.30295,0 0.56125,3.18044 -2.61919,3.36752z" fill="#d69a51"/><path d="M277.7118,188.98099c-2.24502,1.12251 -2.80627,0.74834 -2.24502,-0.18708c0.56125,-0.93542 3.36752,-0.37417 2.24502,0.18708z" fill="#d69a51"/><path d="M193.71078,189.35516c-3.36752,0.18708 -6.54796,-2.4321 -3.55461,-2.61919c2.99335,-0.18708 5.79962,2.4321 3.55461,2.61919z" fill="#d69a51"/><path d="M197.26539,189.35516c-1.68376,-0.37417 -2.24502,-2.61919 -0.74834,-2.61919c1.49668,0 2.61919,2.99335 0.74834,2.61919z" fill="#d69a51"/><path d="M227.94728,191.03892c-1.68376,0.56125 -2.4321,-1.68376 -0.56125,-1.68376c1.87085,0 1.68376,1.30959 0.56125,1.68376z" fill="#d69a51"/><path d="M300.16196,185.42638c-2.24502,0 -1.12251,-2.4321 0.93542,-2.4321c2.05793,0 1.30959,2.4321 -0.93542,2.4321z" fill="#d69a51"/></g><path d="M256.38415,177.38174c0,0 0.56125,-1.12251 1.30959,-2.80627c0.37417,-0.74834 0.93542,-1.87085 1.68376,-2.80627c0.56125,-0.93542 1.30959,-2.05793 2.05793,-3.18044c1.49668,-2.05793 3.18044,-3.92878 4.67712,-5.23837c1.49668,-1.30959 2.61919,-2.05793 2.61919,-2.05793c0,0 -0.18708,0.18708 -0.56125,0.74834c-0.37417,0.37417 -0.93542,1.12251 -1.49668,1.68376c-0.56125,0.74834 -1.30959,1.68376 -2.05793,2.61919c-0.74834,0.93542 -1.49668,1.87085 -2.24502,2.99335c-1.49668,2.05793 -2.99335,4.11586 -4.11586,5.61254c-1.12251,1.49668 -1.87085,2.4321 -1.87085,2.4321z" fill="#d69a51"/><g fill="#d69a51"><path d="M233.18565,176.44632c0,0 0.56125,-1.12251 1.30959,-2.80627c0.93542,-1.68376 2.24502,-3.92878 3.74169,-5.98671c1.49668,-2.05793 3.18044,-4.11586 4.49003,-5.42546c1.49668,-1.12251 2.61919,-1.87085 2.61919,-1.87085c0,0 -0.18708,0.18708 -0.56125,0.74834c-0.37417,0.37417 -0.93542,0.93542 -1.49668,1.68376c-1.12251,1.49668 -2.61919,3.55461 -4.11586,5.61254c-1.49668,2.05793 -2.99335,4.11586 -4.11586,5.61254c-1.12251,1.49668 -1.87085,2.4321 -1.87085,2.4321z"/><path d="M208.49047,176.44632c0,0 0.37417,-1.12251 1.30959,-2.61919c0.74834,-1.49668 2.05793,-3.55461 3.36752,-5.61254c1.30959,-1.87085 2.80627,-3.74169 4.11586,-5.05129c1.30959,-1.30959 2.24502,-1.87085 2.24502,-1.87085c0,0 -0.18708,0.18708 -0.56125,0.56125c-0.37417,0.37417 -0.74834,0.93542 -1.30959,1.68376c-0.93542,1.49668 -2.4321,3.36752 -3.74169,5.23837c-1.30959,1.87085 -2.61919,3.74169 -3.74169,5.23837c-0.93542,1.49668 -1.68376,2.4321 -1.68376,2.4321z"/></g></g></g></svg>